Jump_normalized_Motion_pl15
version=1
nRows=17
nColumns=43
inDegrees=yes
endheader
time		pelvis_tilt		pelvis_list		pelvis_rotation		pelvis_tx		pelvis_ty		pelvis_tz		hip_flexion_r		hip_adduction_r		hip_rotation_r		knee_angle_r		ankle_angle_r		subtalar_angle_r		mtp_angle_r		hip_flexion_l		hip_adduction_l		hip_rotation_l		knee_angle_l		ankle_angle_l		subtalar_angle_l		mtp_angle_l		lumbar_extension		lumbar_bending		lumbar_rotation		neck_flexion		neck_lateral_bending		neck_rotation		arm_flex_r		arm_add_r		arm_rot_r		elbow_flex_r		pro_sup_r		wrist_flex_r		wrist_dev_r		hand_finger_flex_r		arm_flex_l		arm_add_l		arm_rot_l		elbow_flex_l		pro_sup_l		wrist_flex_l		wrist_dev_l		hand_finger_flex_l		
0.325000		1.902447		-21.525960		90.014909		0.063979		1.806695		1.819751		79.008957		6.086561		-0.183897		-128.654055		27.405106		3.923926		17.018714		79.853185		-10.485876		1.849569		-130.254039		22.507543		3.260717		20.515880		-49.593406		-0.510480		2.921587		40.496374		-1.833978		1.930586		68.111783		-15.616760		4.857029		79.941458		97.269862		-5.717628		3.936752		35.078937		60.558598		-26.679294		2.482162		87.094044		88.675692		-4.979776		0.254236		24.416921		
0.328106		1.932728		-21.667957		90.008302		0.064016		1.808506		1.816331		78.610501		6.112719		-0.135981		-128.354602		27.354548		3.987222		17.112104		79.497426		-10.538378		1.807217		-129.977845		22.302757		3.260385		20.501646		-49.203557		-0.496962		2.949575		40.236795		-1.853777		1.899681		68.986693		-15.678791		5.177929		80.334260		97.233638		-5.654202		3.992271		35.075805		61.585722		-26.697056		2.935634		87.423634		88.608656		-5.068893		0.197843		24.503441		
0.331212		1.962662		-21.907027		90.010531		0.064085		1.810230		1.812871		78.281180		6.158023		-0.090381		-128.013929		27.331814		4.028002		17.151231		79.232244		-10.593231		1.775937		-129.669743		22.169829		3.264946		20.493968		-48.693896		-0.460553		2.952891		39.999890		-1.876141		1.898339		69.826578		-15.629955		5.446843		80.650565		97.262225		-5.591912		4.004553		35.081538		62.506234		-26.667723		3.234151		87.769488		88.583773		-5.071971		0.129335		24.533904		
0.334318		1.994554		-22.131624		90.007580		0.064143		1.811981		1.809341		77.933856		6.198117		-0.038633		-127.676273		27.310632		4.074259		17.192150		78.960728		-10.645957		1.736083		-129.376694		22.016660		3.267296		20.485488		-48.198012		-0.430092		2.958347		39.756137		-1.895331		1.897792		70.678431		-15.602077		5.729516		80.966558		97.300305		-5.525784		4.024743		35.091227		63.435631		-26.661856		3.558122		88.103492		88.557100		-5.070713		0.059855		24.563225		
0.337424		1.858682		-21.943046		89.909113		0.064253		1.814756		1.805449		77.070601		6.210495		0.211076		-127.301418		27.369342		4.316938		17.459036		78.139387		-10.675494		1.496906		-128.983805		21.422779		3.023022		20.435344		-48.195506		-0.602667		2.979248		39.571029		-1.785887		1.777052		71.654555		-15.819420		6.093412		81.347570		97.316081		-5.596854		4.361759		35.187932		64.797253		-26.815195		4.545410		88.181202		88.073362		-5.422839		-0.216653		24.613713		
0.340530		1.856607		-22.236779		89.889392		0.064256		1.816459		1.801854		76.785840		6.221356		0.288012		-126.943676		27.345954		4.367221		17.509508		77.942012		-10.703829		1.422294		-128.675731		21.309905		3.008188		20.423154		-47.612981		-0.590772		2.935563		39.345956		-1.803043		1.786421		72.529536		-15.783838		6.433869		81.591497		97.369901		-5.506802		4.415479		35.243576		65.694160		-26.861959		4.881950		88.522521		88.033805		-5.379768		-0.243262		24.662720		
0.343636		1.775033		-22.358365		89.847814		0.064172		1.818562		1.798060		76.296336		6.165706		0.453981		-126.590175		27.340970		4.558414		17.617147		77.527336		-10.681301		1.255872		-128.336168		20.926789		2.883026		20.388157		-47.239857		-0.644798		2.861414		39.110293		-1.740170		1.784744		73.402957		-15.722710		6.656970		81.888219		97.364725		-5.492367		4.588683		35.374971		66.705632		-26.884636		5.305312		88.809318		87.822142		-5.377785		-0.264193		24.719129		
0.346742		1.668125		-22.457360		89.796161		0.064091		1.820755		1.794191		75.768846		6.092162		0.635603		-126.223677		27.339204		4.776497		17.742613		77.077760		-10.653213		1.064816		-127.975201		20.506120		2.729112		20.347323		-46.888953		-0.723657		2.777071		38.890269		-1.668313		1.775962		74.296922		-15.684647		6.912473		82.151885		97.357540		-5.479463		4.805500		35.531184		67.755602		-26.921044		5.795749		89.060793		87.580104		-5.380215		-0.269252		24.783957		
0.349848		1.651104		-22.695600		89.766050		0.063972		1.822635		1.790551		75.437115		6.056460		0.720440		-125.857658		27.275978		4.894590		17.778967		76.847446		-10.645017		0.992640		-127.637992		20.228096		2.719476		20.327186		-46.350931		-0.715321		2.742303		38.637551		-1.668815		1.785516		75.311440		-15.702807		7.395537		82.213639		97.442531		-5.349205		4.946030		35.613262		68.810319		-27.005523		6.315776		89.235679		87.611232		-5.250836		-0.176165		24.839652		
0.352955		1.481121		-22.634255		89.729775		0.063866		1.825129		1.786312		74.698005		5.895811		0.950096		-125.493536		27.266222		5.232251		17.947339		76.202763		-10.571098		0.738115		-127.256748		19.530562		2.470014		20.255649		-46.171131		-0.848478		2.625001		38.321511		-1.534096		1.720613		76.156245		-15.747245		7.619254		82.562937		97.358679		-5.418086		5.259536		35.878585		69.941652		-27.018572		6.918994		89.453603		87.344862		-5.312879		-0.083457		24.927259		
0.356061		1.484407		-22.893745		89.715038		0.063753		1.826977		1.782445		74.359586		5.856869		1.008858		-125.104091		27.210108		5.306486		17.968105		75.997233		-10.587082		0.668832		-126.938303		19.323795		2.469403		20.240828		-45.603060		-0.818998		2.605983		38.055149		-1.538888		1.726521		77.030418		-15.623183		7.877644		82.680671		97.418504		-5.384913		5.308405		35.915527		70.840463		-26.910313		7.182113		89.649501		87.369866		-5.293264		-0.053321		24.940926		
0.359167		1.415635		-22.991435		89.702338		0.063629		1.829034		1.778477		73.849179		5.760639		1.145490		-124.741033		27.140529		5.504915		18.039556		75.628854		-10.551456		0.552405		-126.611153		18.720629		2.409969		20.200261		-45.186515		-0.844969		2.544772		37.637366		-1.506589		1.719411		78.021937		-15.701399		8.376809		82.734853		97.577149		-5.363349		5.475760		36.022714		71.958589		-26.961120		7.805781		89.710420		87.434856		-5.311858		0.079953		24.968752		
0.362273		1.412735		-23.215533		89.700380		0.063556		1.831028		1.774219		73.415977		5.704312		1.204959		-124.328420		27.091176		5.599705		18.068247		75.349146		-10.570586		0.469384		-126.251083		18.447120		2.383061		20.181782		-44.650968		-0.821993		2.511782		37.321321		-1.489107		1.713942		78.741951		-15.567565		8.536049		82.994310		97.633200		-5.385222		5.484054		36.058462		72.742456		-26.836590		7.995034		89.968662		87.442555		-5.351027		0.075598		24.968498		
0.365379		1.188977		-23.051863		89.638627		0.063346		1.833745		1.769827		72.555088		5.512942		1.523540		-123.945933		27.121665		6.013882		18.299097		74.625189		-10.448667		0.161718		-125.812817		17.341084		1.955741		20.082275		-44.540502		-0.996951		2.383393		36.918631		-1.325784		1.620535		79.701671		-15.721664		8.996732		83.137809		98.051361		-5.713880		5.670071		36.210208		74.011534		-26.870545		8.865101		89.940675		87.558637		-5.798239		0.186990		24.931667		
0.368485		1.164615		-23.278159		89.606229		0.063279		1.835570		1.765653		72.167200		5.465038		1.619298		-123.566231		27.036055		6.115978		18.345981		74.382740		-10.471766		0.071818		-125.468308		17.021560		1.949520		20.055002		-43.951055		-0.994187		2.334267		36.433038		-1.355511		1.658694		80.572583		-15.719148		9.439415		83.203068		98.239132		-5.648495		5.736789		36.255942		74.908075		-26.904414		9.285342		90.054782		87.690951		-5.779761		0.251203		24.962151		
0.371591		1.116259		-23.410671		89.587953		0.063231		1.837540		1.761291		71.650795		5.398673		1.744565		-123.173713		26.945812		6.298260		18.416923		74.058328		-10.488850		-0.024163		-125.149071		16.458953		1.918459		20.015395		-43.453515		-1.006858		2.265846		35.892991		-1.354882		1.692226		81.414395		-15.721861		9.830984		83.263448		98.487811		-5.610807		5.826032		36.280364		75.852556		-26.947295		9.778512		90.127295		87.882225		-5.785121		0.318748		24.983138		
0.374697		1.091323		-23.522645		89.561298		0.063155		1.839621		1.756827		71.105326		5.331486		1.860664		-122.779770		26.866954		6.501842		18.496376		73.685858		-10.501738		-0.116116		-124.773991		15.891322		1.851506		19.973881		-42.984011		-1.019583		2.218171		35.377595		-1.339271		1.717883		82.225745		-15.667256		10.129423		83.331813		98.720869		-5.548097		5.930741		36.295581		76.779056		-26.956590		10.237822		90.184270		88.080744		-5.784335		0.366492		25.002998		
